<svg width="106" height="24" viewBox="0 0 106 24" fill="none" xmlns="http://www.w3.org/2000/svg">
<path d="M7.00671 18.5666C5.74671 18.5666 4.5256 18.3877 3.34338 18.0299C2.17671 17.6722 1.25116 17.1977 0.566711 16.6066L1.61671 14.2499C2.2856 14.7788 3.10227 15.2144 4.06671 15.5566C5.04671 15.8833 6.02671 16.0466 7.00671 16.0466C8.22004 16.0466 9.12226 15.8522 9.71337 15.4633C10.32 15.0744 10.6234 14.5611 10.6234 13.9233C10.6234 13.4566 10.4523 13.0755 10.11 12.7799C9.78337 12.4688 9.36337 12.2277 8.85004 12.0566C8.33671 11.8855 7.63671 11.6911 6.75004 11.4733C5.5056 11.1777 4.49449 10.8822 3.71671 10.5866C2.95449 10.2911 2.29338 9.83217 1.73338 9.20995C1.18893 8.57217 0.916711 7.71661 0.916711 6.64328C0.916711 5.74106 1.15782 4.92439 1.64004 4.19328C2.13782 3.44661 2.87671 2.8555 3.85671 2.41995C4.85227 1.98439 6.0656 1.76661 7.49671 1.76661C8.49226 1.76661 9.47226 1.89106 10.4367 2.13995C11.4012 2.38884 12.2334 2.74661 12.9334 3.21328L11.9767 5.56995C11.2612 5.14995 10.5145 4.83106 9.73671 4.61328C8.95893 4.3955 8.20449 4.28661 7.47338 4.28661C6.2756 4.28661 5.38115 4.48883 4.79004 4.89328C4.21449 5.29772 3.92671 5.83439 3.92671 6.50328C3.92671 6.96995 4.09004 7.35106 4.41671 7.64661C4.75893 7.94217 5.18671 8.1755 5.70004 8.34661C6.21338 8.51772 6.91338 8.71217 7.80004 8.92995C9.01337 9.20995 10.0089 9.5055 10.7867 9.81661C11.5645 10.1122 12.2256 10.5711 12.77 11.1933C13.33 11.8155 13.61 12.6555 13.61 13.7133C13.61 14.6155 13.3612 15.4322 12.8634 16.1633C12.3812 16.8944 11.6423 17.4777 10.6467 17.9133C9.65115 18.3488 8.43782 18.5666 7.00671 18.5666Z" fill="#101828"/>
<path d="M16.3379 5.87328H19.2545V18.3333H16.3379V5.87328ZM17.8078 3.81995C17.279 3.81995 16.8356 3.65661 16.4779 3.32995C16.1201 2.98772 15.9412 2.56772 15.9412 2.06995C15.9412 1.57217 16.1201 1.15995 16.4779 0.833279C16.8356 0.491057 17.279 0.319946 17.8078 0.319946C18.3367 0.319946 18.7801 0.483279 19.1378 0.809946C19.4956 1.12106 19.6745 1.51772 19.6745 1.99995C19.6745 2.51328 19.4956 2.94883 19.1378 3.30661C18.7956 3.64883 18.3523 3.81995 17.8078 3.81995Z" fill="#101828"/>
<path d="M26.9326 18.4966C25.9215 18.4966 24.9338 18.3644 23.9693 18.0999C23.0049 17.8355 22.2349 17.5011 21.6593 17.0966L22.7793 14.8799C23.3393 15.2533 24.0082 15.5566 24.786 15.7899C25.5793 16.0077 26.3571 16.1166 27.1193 16.1166C28.8615 16.1166 29.7326 15.6577 29.7326 14.7399C29.7326 14.3044 29.5071 14.0011 29.056 13.8299C28.6204 13.6588 27.9126 13.4955 26.9326 13.3399C25.906 13.1844 25.066 13.0055 24.4126 12.8033C23.7749 12.6011 23.2149 12.2511 22.7326 11.7533C22.266 11.2399 22.0326 10.5322 22.0326 9.62995C22.0326 8.44772 22.5226 7.50661 23.5026 6.80661C24.4982 6.09106 25.836 5.73328 27.516 5.73328C28.3715 5.73328 29.2271 5.83439 30.0826 6.03661C30.9382 6.22328 31.6382 6.47995 32.1826 6.80661L31.0626 9.02328C30.0049 8.40106 28.8149 8.08995 27.4926 8.08995C26.6371 8.08995 25.9837 8.22217 25.5326 8.48661C25.0971 8.7355 24.8793 9.06995 24.8793 9.48995C24.8793 9.95661 25.1126 10.2911 25.5793 10.4933C26.0615 10.6799 26.8004 10.8588 27.796 11.0299C28.7915 11.1855 29.6082 11.3644 30.246 11.5666C30.8837 11.7688 31.4282 12.1111 31.8793 12.5933C32.346 13.0755 32.5793 13.7599 32.5793 14.6466C32.5793 15.8133 32.0737 16.7466 31.0626 17.4466C30.0515 18.1466 28.6749 18.4966 26.9326 18.4966Z" fill="#101828"/>
<path d="M46.5299 5.87328L40.6966 19.3366C40.1521 20.6899 39.491 21.6388 38.7132 22.1833C37.9355 22.7433 36.9943 23.0233 35.8899 23.0233C35.2677 23.0233 34.6532 22.9222 34.0466 22.7199C33.4399 22.5177 32.9421 22.2377 32.5532 21.8799L33.7199 19.7333C33.9999 19.9977 34.3266 20.2077 34.6999 20.3633C35.0888 20.5188 35.4777 20.5966 35.8666 20.5966C36.3799 20.5966 36.7999 20.4644 37.1266 20.1999C37.4688 19.9355 37.7799 19.4922 38.0599 18.8699L38.2699 18.3799L32.8332 5.87328H35.8666L39.7866 15.0899L43.7299 5.87328H46.5299Z" fill="#101828"/>
<path d="M55.2595 5.73328C56.4728 5.73328 57.5539 5.99772 58.5028 6.52661C59.4672 7.0555 60.2217 7.80217 60.7661 8.76661C61.3106 9.73106 61.5828 10.8433 61.5828 12.1033C61.5828 13.3633 61.3106 14.4833 60.7661 15.4633C60.2217 16.4277 59.4672 17.1744 58.5028 17.7033C57.5539 18.2322 56.4728 18.4966 55.2595 18.4966C53.5795 18.4966 52.2495 17.9366 51.2695 16.8166V22.8599H48.3528V5.87328H51.1295V7.50661C51.6117 6.9155 52.2028 6.47217 52.9028 6.17661C53.6184 5.88106 54.4039 5.73328 55.2595 5.73328ZM54.9328 15.9999C56.0061 15.9999 56.885 15.6422 57.5695 14.9266C58.2695 14.2111 58.6195 13.2699 58.6195 12.1033C58.6195 10.9366 58.2695 9.9955 57.5695 9.27995C56.885 8.56439 56.0061 8.20661 54.9328 8.20661C54.2328 8.20661 53.6028 8.36995 53.0428 8.69661C52.4828 9.00772 52.0395 9.45884 51.7128 10.0499C51.3861 10.6411 51.2228 11.3255 51.2228 12.1033C51.2228 12.8811 51.3861 13.5655 51.7128 14.1566C52.0395 14.7477 52.4828 15.2066 53.0428 15.5333C53.6028 15.8444 54.2328 15.9999 54.9328 15.9999Z" fill="#101828"/>
<path d="M71.4189 5.73328C72.99 5.73328 74.25 6.19217 75.1989 7.10995C76.1478 8.02772 76.6222 9.38884 76.6222 11.1933V18.3333H73.7056V11.5666C73.7056 10.4777 73.4489 9.66106 72.9356 9.11661C72.4222 8.55661 71.6911 8.27661 70.7422 8.27661C69.6689 8.27661 68.8211 8.60328 68.1989 9.25661C67.5767 9.89439 67.2656 10.8199 67.2656 12.0333V18.3333H64.3489V1.01995H67.2656V7.31995C67.7478 6.80661 68.3389 6.41772 69.0389 6.15328C69.7544 5.87328 70.5478 5.73328 71.4189 5.73328Z" fill="#101828"/>
<path d="M92.3855 5.87328V18.3333H89.6089V16.7466C89.1422 17.3066 88.5589 17.7422 87.8589 18.0533C87.1589 18.3488 86.4044 18.4966 85.5955 18.4966C83.9311 18.4966 82.6166 18.0377 81.6522 17.1199C80.7033 16.1866 80.2289 14.8099 80.2289 12.9899V5.87328H83.1455V12.5933C83.1455 13.7133 83.3944 14.5533 83.8922 15.1133C84.4055 15.6577 85.1289 15.9299 86.0622 15.9299C87.1044 15.9299 87.9289 15.6111 88.5355 14.9733C89.1577 14.3199 89.4689 13.3866 89.4689 12.1733V5.87328H92.3855Z" fill="#101828"/>
<path d="M100.054 18.4966C99.0432 18.4966 98.0555 18.3644 97.091 18.0999C96.1266 17.8355 95.3566 17.5011 94.781 17.0966L95.901 14.8799C96.461 15.2533 97.1299 15.5566 97.9077 15.7899C98.701 16.0077 99.4788 16.1166 100.241 16.1166C101.983 16.1166 102.854 15.6577 102.854 14.7399C102.854 14.3044 102.629 14.0011 102.178 13.8299C101.742 13.6588 101.034 13.4955 100.054 13.3399C99.0277 13.1844 98.1877 13.0055 97.5343 12.8033C96.8966 12.6011 96.3366 12.2511 95.8543 11.7533C95.3877 11.2399 95.1544 10.5322 95.1544 9.62995C95.1544 8.44772 95.6444 7.50661 96.6243 6.80661C97.6199 6.09106 98.9577 5.73328 100.638 5.73328C101.493 5.73328 102.349 5.83439 103.204 6.03661C104.06 6.22328 104.76 6.47995 105.304 6.80661L104.184 9.02328C103.127 8.40106 101.937 8.08995 100.614 8.08995C99.7588 8.08995 99.1055 8.22217 98.6543 8.48661C98.2188 8.7355 98.001 9.06995 98.001 9.48995C98.001 9.95661 98.2343 10.2911 98.701 10.4933C99.1832 10.6799 99.9221 10.8588 100.918 11.0299C101.913 11.1855 102.73 11.3644 103.368 11.5666C104.005 11.7688 104.55 12.1111 105.001 12.5933C105.468 13.0755 105.701 13.7599 105.701 14.6466C105.701 15.8133 105.195 16.7466 104.184 17.4466C103.173 18.1466 101.797 18.4966 100.054 18.4966Z" fill="#101828"/>
</svg>
